<?xml version="1.0" encoding="iso-8859-1"?>
<!-- Generator: Adobe Illustrator 19.0.0, SVG Export Plug-In . SVG Version: 6.00 Build 0)  -->
<svg xmlns="http://www.w3.org/2000/svg" xmlns:xlink="http://www.w3.org/1999/xlink" version="1.1" id="Capa_1" x="0px" y="0px" viewBox="0 0 512 512" style="enable-background:new 0 0 512 512;" xml:space="preserve" width="512px" height="512px">
<g>
	<g>
		<g>
			<path d="M462,31h-44V10.25c0-5.51-4.49-10-10-10s-10,4.49-10,10V31h-81.5V10c0-5.51-4.49-10-10-10s-10,4.49-10,10v21h-81V10     c0-5.51-4.49-10-10-10s-10,4.49-10,10v21h-81.41V10.25c0-5.51-4.49-10-10-10c-5.52,0-10,4.49-10,10V31H50C22.43,31,0,53.43,0,81     v381c0,27.57,22.43,50,50,50h412c27.57,0,50-22.43,50-50V81C512,53.43,489.57,31,462,31z M492,462c0,16.542-13.458,30-30,30H50     c-16.542,0-30-13.458-30-30V202h472V462z M492,182H20v-20h472V182z M492,142H20V81c0-16.542,13.458-30,30-30h44.09v19.25     c0,5.51,4.48,10,10,10c5.51,0,10-4.49,10-10V51h81.41v19c0,5.51,4.49,10,10,10s10-4.49,10-10V51h81v19c0,5.51,4.49,10,10,10     s10-4.49,10-10V51H398v19.25c0,5.51,4.49,10,10,10s10-4.49,10-10V51h44c16.542,0,30,13.458,30,30V142z"/>
			<path d="M408,100.25c-5.51,0-10,4.49-10,10c0,5.52,4.49,10,10,10s10-4.48,10-10C418,104.74,413.51,100.25,408,100.25z"/>
			<path d="M306.5,100c-5.51,0-10,4.49-10,10s4.49,10,10,10s10-4.49,10-10S312.01,100,306.5,100z"/>
			<path d="M205.5,100c-5.51,0-10,4.49-10,10s4.49,10,10,10s10-4.49,10-10S211.01,100,205.5,100z"/>
			<path d="M104.09,100.25c-5.52,0-10,4.49-10,10s4.48,10,10,10c5.51,0,10-4.49,10-10S109.6,100.25,104.09,100.25z"/>
			<path d="M72,324h80c5.523,0,10-4.477,10-10v-80c0-5.523-4.477-10-10-10H72c-5.523,0-10,4.477-10,10v80     C62,319.523,66.477,324,72,324z M82,244h60v60H82V244z"/>
			<path d="M360,324h80c5.523,0,10-4.477,10-10v-80c0-5.523-4.477-10-10-10h-80c-5.523,0-10,4.477-10,10v80     C350,319.523,354.477,324,360,324z M370,244h60v60h-60V244z"/>
			<path d="M72,454h80c5.523,0,10-4.477,10-10v-80c0-5.523-4.477-10-10-10H72c-5.523,0-10,4.477-10,10v80     C62,449.523,66.477,454,72,454z M82,374h60v60H82V374z"/>
			<path d="M360,454h80c5.523,0,10-4.477,10-10v-80c0-5.523-4.477-10-10-10h-80c-5.523,0-10,4.477-10,10v80     C350,449.523,354.477,454,360,454z M370,374h60v60h-60V374z"/>
			<path d="M216,324h80c5.523,0,10-4.477,10-10v-80c0-5.523-4.477-10-10-10h-80c-5.523,0-10,4.477-10,10v80     C206,319.523,210.477,324,216,324z M226,244h60v60h-60V244z"/>
			<path d="M216,454h80c5.523,0,10-4.477,10-10v-80c0-5.523-4.477-10-10-10h-80c-5.523,0-10,4.477-10,10v80     C206,449.523,210.477,454,216,454z M226,374h60v60h-60V374z"/>
		</g>
	</g>
</g>
<g>
</g>
<g>
</g>
<g>
</g>
<g>
</g>
<g>
</g>
<g>
</g>
<g>
</g>
<g>
</g>
<g>
</g>
<g>
</g>
<g>
</g>
<g>
</g>
<g>
</g>
<g>
</g>
<g>
</g>
</svg>
